<svg width="100" height="100" viewBox="0 0 100 100" fill="none" xmlns="http://www.w3.org/2000/svg">
<g clip-path="url(#clip0)">
<rect width="100" height="100" fill="#D5D2D2"/>
<path d="M34.1815 86.26C33.2282 88.7533 31.5782 90 29.2315 90H8.44148C7.78148 90 7.19482 89.78 6.68148 89.34C6.24148 88.8267 6.02148 88.24 6.02148 87.58L6.13148 86.92L30.1115 16.63C30.4048 15.6767 30.9548 14.8333 31.7615 14.1C32.5682 13.3667 33.6682 13 35.0615 13H65.6415C67.0348 13 68.1348 13.3667 68.9415 14.1C69.7482 14.8333 70.2982 15.6767 70.5915 16.63L94.5715 86.92L94.6815 87.58C94.6815 88.24 94.4248 88.8267 93.9115 89.34C93.4715 89.78 92.9215 90 92.2615 90H71.4715C69.1248 90 67.4748 88.7533 66.5215 86.26L63.7715 78.56H36.9315L34.1815 86.26ZM50.3515 34.23L42.5415 57.11H58.1615L50.3515 34.23Z" fill="#FF69DE"/>
</g>
<defs>
<clipPath id="clip0">
<rect width="100" height="100" fill="white"/>
</clipPath>
</defs>
</svg>
